<svg id="svg" version="1.1" xmlns="http://www.w3.org/2000/svg" xmlns:xlink="http://www.w3.org/1999/xlink" width="400" height="454.83870967741933" viewBox="0, 0, 400,454.83870967741933"><g id="svgg"><path id="path0" d="M0.000 90.000 L 0.000 180.000 76.400 180.000 L 152.800 180.000 152.800 90.000 L 152.800 0.000 76.400 0.000 L 0.000 0.000 0.000 90.000 M231.200 90.000 L 231.200 180.000 315.600 180.000 L 400.000 180.000 400.000 90.000 L 400.000 0.000 315.600 0.000 L 231.200 0.000 231.200 90.000 M0.000 359.200 L 0.000 454.800 76.400 454.800 L 152.800 454.800 152.800 359.200 L 152.800 263.600 76.400 263.600 L 0.000 263.600 0.000 359.200 M231.200 359.200 L 231.200 454.800 315.600 454.800 L 400.000 454.800 400.000 359.200 L 400.000 263.600 315.600 263.600 L 231.200 263.600 231.200 359.200 " stroke="none" fill="#fcfcfc" fill-rule="evenodd"></path><path id="path1" d="M153.101 90.300 L 153.000 180.600 76.500 180.701 L 0.000 180.802 0.000 221.800 L 0.000 262.798 76.500 262.899 L 153.000 263.000 153.101 358.900 L 153.202 454.800 192.000 454.800 L 230.798 454.800 230.899 358.900 L 231.000 263.000 315.500 262.899 L 400.000 262.798 400.000 221.800 L 400.000 180.802 315.500 180.701 L 231.000 180.600 230.899 90.300 L 230.798 -0.000 192.000 -0.000 L 153.202 0.000 153.101 90.300 " stroke="none" fill="#ec1c24" fill-rule="evenodd"></path><path id="path2" d="" stroke="none" fill="#f4c4100" fill-rule="evenodd"></path><path id="path3" d="" stroke="none" fill="#f4c4100" fill-rule="evenodd"></path><path id="path4" d="" stroke="none" fill="#f4c4100" fill-rule="evenodd"></path></g></svg>